<svg height="464pt" viewBox="-88 0 464 464" width="464pt" xmlns="http://www.w3.org/2000/svg"><g fill="#ffb655"><path d="m64 304c0-17.671875 14.328125-32 32-32h96c17.671875 0 32 14.328125 32 32v128h56c4.417969 0 8-3.582031 8-8v-392c0-17.671875-14.328125-32-32-32h-32v184c0 4.417969-3.582031 8-8 8h-144c-4.417969 0-8-3.582031-8-8v-184h-32c-17.671875 0-32 14.328125-32 32v392c0 4.417969 3.582031 8 8 8h56zm0 0"/><path d="m16 432 48-67.761719v67.761719zm0 0"/><path d="m288 32v392c0 4.417969-3.582031 8-8 8h-56v-128c0-17.671875-14.328125-32-32-32h-62.640625l56.640625-80h30c4.417969 0 8-3.582031 8-8v-184h32c17.671875 0 32 14.328125 32 32zm0 0"/></g><path d="m288 48v376c0 4.417969-3.582031 8-8 8h-264l48-67.761719 65.359375-92.238281 56.640625-80 38-53.679688zm0 0" fill="#ffa733"/><path d="m32 432v32h48v-32zm0 0" fill="#898890"/><path d="m256 464v-32h-48v32zm0 0" fill="#898890"/><path d="m72 192h144c4.417969 0 8-3.582031 8-8v-184h-160v184c0 4.417969 3.582031 8 8 8zm72-128c26.507812 0 48 21.492188 48 48s-21.492188 48-48 48-48-21.492188-48-48 21.492188-48 48-48zm0 0" fill="#ff9478"/><path d="m192 112c0 26.507812-21.492188 48-48 48s-48-21.492188-48-48 21.492188-48 48-48 48 21.492188 48 48zm0 0" fill="#ffe477"/><path d="m192 272h-96c-17.671875 0-32 14.328125-32 32v128h160v-128c0-17.671875-14.328125-32-32-32zm0 0" fill="#ff9478"/><path d="m144 400c-22.738281.007812-42.359375-15.9375-47.003906-38.195312-4.644532-22.253907 6.960937-44.71875 27.804687-53.804688l6.398438 14.65625c-13.886719 6.0625-21.621094 21.03125-18.523438 35.867188 3.09375 14.832031 16.171875 25.460937 31.324219 25.460937s28.230469-10.628906 31.324219-25.460937c3.097656-14.835938-4.636719-29.804688-18.523438-35.867188l6.398438-14.65625c20.84375 9.085938 32.449219 31.550781 27.804687 53.804688-4.644531 22.257812-24.265625 38.203124-47.003906 38.195312zm0 0" fill="#ff6243"/><path d="m136 304h16v48h-16zm0 0" fill="#ff6243"/><path d="m32 432h48v8h-48zm0 0" fill="#787680"/><path d="m208 432h48v8h-48zm0 0" fill="#787680"/></svg>