<svg height="464pt" viewBox="-88 0 464 464" width="464pt" xmlns="http://www.w3.org/2000/svg"><path d="m256 0h-224c-17.671875 0-32 14.328125-32 32v384c0 8.835938 7.164062 16 16 16h256c8.835938 0 16-7.164062 16-16v-384c0-17.671875-14.328125-32-32-32zm0 0" fill="#ffc477"/><path d="m288 168.238281v247.761719c-.027344 8.824219-7.175781 15.972656-16 16h-223.441406s239.441406-103.601562 239.441406-263.761719zm0 0" fill="#ffb655"/><path d="m16 432h256v32h-256zm0 0" fill="#787680"/><path d="m40 72h208c4.417969 0 8 3.582031 8 8v32c0 4.417969-3.582031 8-8 8h-208c-4.417969 0-8-3.582031-8-8v-32c0-4.417969 3.582031-8 8-8zm0 0" fill="#ffe477"/><path d="m40 152h208c4.417969 0 8 3.582031 8 8v32c0 4.417969-3.582031 8-8 8h-208c-4.417969 0-8-3.582031-8-8v-32c0-4.417969 3.582031-8 8-8zm0 0" fill="#ffe477"/><path d="m104 48h-16v-8h-32v8h-16v-16c0-4.417969 3.582031-8 8-8h48c4.417969 0 8 3.582031 8 8zm0 0" fill="#ff7956"/><path d="m240 48h-16v-8h-32v8h-16v-16c0-4.417969 3.582031-8 8-8h48c4.417969 0 8 3.582031 8 8zm0 0" fill="#ff7956"/><path d="m16 432h256v8h-256zm0 0" fill="#57565c"/><path d="m288 168v248c-.027344 8.824219-7.175781 15.972656-16 16h-224s240-103.839844 240-264zm0 0" fill="#ffb655"/><path d="m40 232h208c4.417969 0 8 3.582031 8 8v32c0 4.417969-3.582031 8-8 8h-208c-4.417969 0-8-3.582031-8-8v-32c0-4.417969 3.582031-8 8-8zm0 0" fill="#ffe477"/><path d="m184 352c0 22.089844-17.910156 40-40 40s-40-17.910156-40-40 17.910156-40 40-40 40 17.910156 40 40zm0 0" fill="#ff7956"/></svg>