<?xml version="1.0" encoding="iso-8859-1"?>
<!-- Generator: Adobe Illustrator 19.0.0, SVG Export Plug-In . SVG Version: 6.00 Build 0)  -->
<svg version="1.1" id="Capa_1" xmlns="http://www.w3.org/2000/svg" xmlns:xlink="http://www.w3.org/1999/xlink" x="0px" y="0px"
	 viewBox="0 0 512 512" style="enable-background:new 0 0 512 512;" xml:space="preserve">
<circle style="fill:#D9ED69;" cx="255.999" cy="256" r="245"/>
<path style="fill:#F24976;" d="M484.477,104.094h-27.788l-11.473-11.473c-1.167-1.166-3.076-1.167-4.243,0L429.5,104.094H411v15
	h18.499l11.474,11.475c1.167,1.166,3.076,1.166,4.242,0l11.474-11.475h27.788c4.142,0,7.5-3.357,7.5-7.5
	C491.977,107.451,488.62,104.094,484.477,104.094z"/>
<path style="fill:#F87EAB;" d="M477.026,90.375c-1.167,1.166-3.076,1.166-4.243,0l-20-20c-1.167-1.166-1.167-3.076,0.001-4.242
	l19.999-19.999c1.167-1.167,3.076-1.167,4.243,0l19.998,19.999c1.167,1.166,1.167,3.076,0,4.242L477.026,90.375z"/>
<path style="fill:#E26693;" d="M498.625,153.522c-1.167,1.167-3.076,1.166-4.242,0l-12.499-12.5c-1.167-1.166-1.167-3.075,0-4.242
	l12.499-12.499c1.167-1.166,3.076-1.166,4.243,0l12.499,12.499c1.167,1.167,1.167,3.075,0,4.242L498.625,153.522z"/>
<path style="fill:#F87EAB;" d="M365,52.131c-1.919,0-3.839-0.732-5.303-2.196c-22.738-22.738-59.734-22.738-82.472,0
	c-2.929,2.928-7.678,2.928-10.606,0c-2.929-2.93-2.929-7.678,0-10.607c28.585-28.587,75.099-28.585,103.685,0
	c2.929,2.93,2.929,7.678,0,10.607C368.839,51.398,366.919,52.131,365,52.131z"/>
<path style="fill:#E26693;" d="M287.181,67.39c-1.919,0-3.839-0.732-5.303-2.196c-2.929-2.93-2.929-7.678,0-10.608
	c20.171-20.173,52.994-20.172,73.168,0c2.929,2.93,2.929,7.678,0,10.606c-2.929,2.93-7.678,2.929-10.606,0.001
	c-14.324-14.324-37.63-14.324-51.955,0C291.02,66.657,289.1,67.39,287.181,67.39z"/>
<path style="fill:#FE3745;" d="M334.483,82.648c-1.919,0-3.839-0.732-5.303-2.196c-5.91-5.909-15.526-5.91-21.437,0
	c-2.929,2.928-7.678,2.928-10.607,0c-2.929-2.93-2.929-7.678,0-10.607c11.758-11.758,30.891-11.758,42.65,0
	c2.929,2.93,2.929,7.678,0,10.607C338.322,81.916,336.402,82.648,334.483,82.648z"/>
<g>
	<path style="fill:#2E4C89;" d="M287.528,213v-14.84h-20.063c-1.009,0-1.838-0.361-2.333-1.017
		c-0.496-0.655-0.617-1.551-0.342-2.521l1.264-4.462h-28.527V213H287.528z"/>
	<rect x="301.53" y="198" style="fill:#2E4C89;" width="30" height="15"/>
	<path style="fill:#2E4C89;" d="M156.397,190.16l-8.068,24.204c-0.222,0.293-0.756,0.678-1.104,0.796H91.601l8.565-25H35.528v82
		c0,2.75,2.25,5,5,5H65.36c2.75,0,5.729-2.129,6.621-4.73l10.713-31.27h64.74c11.042,0,22.002-7.899,25.495-18.375l10.875-32.625
		L156.397,190.16L156.397,190.16z"/>
</g>
<path style="fill:#293D7C;" d="M45.722,272.16v-82H35.528v82c0,2.75,2.25,5,5,5h10.195C47.972,277.16,45.722,274.91,45.722,272.16z"
	/>
<path style="fill:#445EA0;" d="M292.152,99.16H115.527c-5.5,0-10,4.5-10,10v33h-16v-38c0-2.75-2.25-5-5-5H67.788
	c-22.113,26.507-38.724,57.756-48.099,92h246.395L292.152,99.16z"/>
<path style="fill:#C3DDF4;" d="M288.178,113.183H166.505c-8.825,0-15.978,7.153-15.978,15.978c0,8.824,7.153,15.978,15.978,15.978
	h112.619L288.178,113.183z"/>
<path style="fill:#F87EAB;" d="M286.293,119.84H166.505c-5.14,0-9.321,4.182-9.321,9.32c0,5.139,4.181,9.32,9.321,9.32h114.506
	L286.293,119.84z"/>
<path style="fill:#E26693;" d="M167.891,129.16c0-5.139,4.181-9.32,9.321-9.32h-10.707c-5.14,0-9.321,4.182-9.321,9.32
	c0,5.139,4.181,9.32,9.321,9.32h10.707C172.072,138.48,167.891,134.299,167.891,129.16z"/>
<path style="fill:#2E4C89;" d="M397.528,194.16c0,2.75-2.25,5-5,5H267.465c-2.75,0-4.387-2.165-3.637-4.811l27.875-98.379
	c0.749-2.646,3.613-4.811,6.363-4.811h94.462c2.75,0,5,2.25,5,5V194.16z"/>
<path style="fill:#293D7C;" d="M274.182,194.35l27.875-98.379c0.75-2.646,3.613-4.811,6.363-4.811h-10.353
	c-2.75,0-5.613,2.165-6.363,4.811l-27.875,98.379c-0.75,2.645,0.887,4.811,3.637,4.811h10.353
	C275.069,199.16,273.432,196.995,274.182,194.35z"/>
<g>
	<path style="fill:#445EA0;" d="M409.528,98.387H396v26.415h13.528c1.65,0,3-1.35,3-3v-20.415
		C412.528,99.736,411.178,98.387,409.528,98.387z"/>
	<path style="fill:#445EA0;" d="M409.528,131.16H396v26.415h13.528c1.65,0,3-1.35,3-3V134.16
		C412.528,132.51,411.178,131.16,409.528,131.16z"/>
	<path style="fill:#445EA0;" d="M315.528,170.16h-16c-2.75,0-5,2.25-5,5v24h26v-24C320.528,172.41,318.278,170.16,315.528,170.16z"
		/>
	<path style="fill:#445EA0;" d="M334.528,170.16h-5c-2.75,0-5,2.25-5,5v24h15v-24C339.528,172.41,337.278,170.16,334.528,170.16z"/>
	<path style="fill:#445EA0;" d="M355.528,170.16h-5c-2.75,0-5,2.25-5,5v24h15v-24C360.528,172.41,358.278,170.16,355.528,170.16z"/>
	<path style="fill:#445EA0;" d="M376.528,170.16h-5c-2.75,0-5,2.25-5,5v24h15v-24C381.528,172.41,379.278,170.16,376.528,170.16z"/>
</g>
<path style="fill:#F24976;" d="M346.528,142.16c0,2.75-2.25,5-5,5h-39c-2.75,0-5-2.25-5-5v-17c0-2.75,2.25-5,5-5h39
	c2.75,0,5,2.25,5,5V142.16z"/>
<circle style="fill:#02AF8E;" cx="153.649" cy="164.03" r="9.126"/>
<circle style="fill:#F24976;" cx="180.869" cy="164.03" r="9.126"/>
<circle style="fill:#2E4C89;" cx="208.16" cy="164.03" r="9.126"/>
<path style="fill:#445EA0;" d="M231.027,246.16c-9.649,0-17.5-7.851-17.5-17.5s7.851-17.5,17.5-17.5h117.5c1.657,0,3,1.343,3,3v29
	c0,1.657-1.343,3-3,3H231.027z"/>
<g>
	<path style="fill:#2E4C89;" d="M233.999,228.66c0-9.649,7.851-17.5,17.5-17.5h-20.472c-9.649,0-17.5,7.851-17.5,17.5
		s7.851,17.5,17.5,17.5h20.472C241.85,246.16,233.999,238.31,233.999,228.66z"/>
	<path style="fill:#2E4C89;" d="M74.624,130.163c4.142,0,7.5-3.357,7.5-7.5s-3.358-7.5-7.5-7.5h-19.11
		c-3.333,4.736-6.504,9.594-9.502,14.569c0.78,0.274,1.614,0.431,2.488,0.431H74.624z"/>
	<path style="fill:#2E4C89;" d="M74.624,150.163H48.5c-4.142,0-7.5-3.357-7.5-7.5s3.358-7.5,7.5-7.5h26.125
		c4.142,0,7.5,3.357,7.5,7.5S78.766,150.163,74.624,150.163z"/>
	<path style="fill:#2E4C89;" d="M74.624,170.163H48.5c-4.142,0-7.5-3.357-7.5-7.5s3.358-7.5,7.5-7.5h26.125
		c4.142,0,7.5,3.357,7.5,7.5S78.766,170.163,74.624,170.163z"/>
</g>
<g>
	<path style="fill:#293D7C;" d="M254.266,429.112v-22h-28.527l1.265,4.462c0.275,0.971,0.153,1.866-0.342,2.522
		c-0.495,0.655-1.324,1.017-2.333,1.017h-20.063v14h50V429.112z"/>
	<rect x="160.27" y="415.11" style="fill:#293D7C;" width="30" height="14"/>
</g>
<path style="fill:#2E4C89;" d="M448.858,407.112h-57.231l8.565,25h-55.624c-0.348-0.118-0.882-0.503-1.104-0.796l-8.068-24.204
	h-27.407l10.875,32.623c3.491,10.477,14.452,18.377,25.495,18.377h50.13C415.104,443.96,433.451,426.747,448.858,407.112z"/>
<path style="fill:#293D7C;" d="M332.875,439.735L322,407.112h-14.011l10.875,32.623c3.491,10.477,14.452,18.377,25.495,18.377
	h14.011C347.327,458.112,336.366,450.212,332.875,439.735z"/>
<path style="fill:#2E4C89;" d="M321.266,317.112v-20.449h84.453l8.828,20.449h28.319l-14.683-34.011
	c-3.162-7.324-10.941-12.439-18.917-12.439H287.477c-7.389,0-15.107,4.482-18.769,10.9l-20.277,35.549L321.266,317.112
	L321.266,317.112z"/>
<path style="fill:#293D7C;" d="M308.046,270.663h-20.568c-7.389,0-15.107,4.482-18.769,10.9l-20.277,35.549H269l20.277-35.549
	C292.939,275.145,300.657,270.663,308.046,270.663z"/>
<path style="fill:#445EA0;" d="M460.044,320.785c-0.978-2.57-4.028-4.673-6.778-4.673h-46c-2.75,0-5,2.25-5,5v38h-16v-33
	c0-5.5-4.5-10-10-10H199.848l26.067,92h222.144c10.928-13.779,20.402-28.761,28.196-44.716L460.044,320.785z"/>
<path style="fill:#C3DDF4;" d="M325.288,330.135H203.82l9.054,31.955h112.413c8.825,0,15.978-7.153,15.978-15.977
	C341.266,337.288,334.113,330.135,325.288,330.135z"/>
<path style="fill:#94C2ED;" d="M325.288,336.792H205.706l5.281,18.641h114.3c5.14,0,9.321-4.182,9.321-9.32
	S330.428,336.792,325.288,336.792z"/>
<g>
	<path style="fill:#445EA0;" d="M95.999,315.339H82.265c-1.65,0-3,1.35-3,3v20.415c0,1.65,1.35,3,3,3h13.734V315.339z"/>
	<path style="fill:#445EA0;" d="M95.999,348.112H82.265c-1.65,0-3,1.35-3,3v20.415c0,1.65,1.35,3,3,3h13.734V348.112z"/>
</g>
<path style="fill:#2E4C89;" d="M94.265,411.112c0,2.75,2.25,5,5,5h125.063c2.75,0,4.387-2.165,3.637-4.811l-27.874-98.379
	c-0.749-2.646-3.613-4.811-6.363-4.811H99.265c-2.75,0-5,2.25-5,5V411.112z"/>
<path style="fill:#293D7C;" d="M104.999,411.112v-98c0-2.75,2.25-5,5-5H99.265c-2.75,0-5,2.25-5,5v98c0,2.75,2.25,5,5,5h10.734
	C107.249,416.112,104.999,413.862,104.999,411.112z"/>
<g>
	<path style="fill:#445EA0;" d="M176.266,387.112h16c2.75,0,5,2.25,5,5v24h-26v-24C171.266,389.362,173.516,387.112,176.266,387.112
		z"/>
	<path style="fill:#445EA0;" d="M157.266,387.112h5c2.75,0,5,2.25,5,5v24h-15v-24C152.266,389.362,154.516,387.112,157.266,387.112z
		"/>
	<path style="fill:#445EA0;" d="M136.266,387.112h5c2.75,0,5,2.25,5,5v24h-15v-24C131.266,389.362,133.516,387.112,136.266,387.112z
		"/>
	<path style="fill:#445EA0;" d="M115.265,387.112h5c2.75,0,5,2.25,5,5v24h-15v-24C110.265,389.362,112.515,387.112,115.265,387.112z
		"/>
</g>
<g>
	<path style="fill:#94C2ED;" d="M145.266,359.112c0,2.75,2.25,5,5,5h39c2.75,0,5-2.25,5-5v-17c0-2.75-2.25-5-5-5h-39
		c-2.75,0-5,2.25-5,5V359.112z"/>
	<path style="fill:#94C2ED;" d="M155.999,359.112v-17c0-2.75,2.25-5,5-5h-10.734c-2.75,0-5,2.25-5,5v17c0,2.75,2.25,5,5,5h10.734
		C158.249,364.112,155.999,361.862,155.999,359.112z"/>
</g>
<circle style="fill:#02AF8E;" cx="338.14" cy="380.99" r="9.126"/>
<circle style="fill:#60D882;" cx="310.92" cy="380.99" r="9.126"/>
<circle style="fill:#69CDFF;" cx="283.64" cy="380.99" r="9.126"/>
<path style="fill:#2E4C89;" d="M260.766,463.112c9.649,0,17.5-7.851,17.5-17.5s-7.851-17.5-17.5-17.5h-117.5c-1.657,0-3,1.343-3,3
	v29c0,1.657,1.343,3,3,3H260.766z"/>
<path style="fill:#293D7C;" d="M150.999,460.112v-29c0-1.657,1.343-3,3-3h-10.734c-1.657,0-3,1.343-3,3v29c0,1.657,1.343,3,3,3
	h10.734C152.342,463.112,150.999,461.769,150.999,460.112z"/>
<g>
	<path style="fill:#2E4C89;" d="M447.829,353.612h-26.125c-4.142,0-7.5-3.357-7.5-7.5s3.358-7.5,7.5-7.5h26.125
		c4.142,0,7.5,3.357,7.5,7.5S451.971,353.612,447.829,353.612z"/>
	<path style="fill:#2E4C89;" d="M447.829,373.612h-26.125c-4.142,0-7.5-3.357-7.5-7.5s3.358-7.5,7.5-7.5h26.125
		c4.142,0,7.5,3.357,7.5,7.5S451.971,373.612,447.829,373.612z"/>
	<path style="fill:#2E4C89;" d="M447.829,393.612h-26.125c-4.142,0-7.5-3.357-7.5-7.5s3.358-7.5,7.5-7.5h26.125
		c4.142,0,7.5,3.357,7.5,7.5S451.971,393.612,447.829,393.612z"/>
</g>
<path style="fill:#69CDFF;" d="M34.243,390.69c0-1.92-0.732-3.839-2.196-5.304c-22.738-22.738-22.738-59.734,0-82.472
	c2.928-2.929,2.928-7.678,0-10.606c-2.93-2.929-7.678-2.929-10.607,0c-28.587,28.585-28.585,75.099,0,103.685
	c2.93,2.93,7.678,2.93,10.607,0C33.511,394.529,34.243,392.609,34.243,390.69z"/>
<path style="fill:#3EB7FF;" d="M49.501,312.871c0-1.92-0.733-3.839-2.196-5.304c-2.93-2.929-7.678-2.929-10.607,0
	c-20.173,20.172-20.172,52.994,0,73.168c2.93,2.929,7.678,2.929,10.606,0c2.93-2.929,2.929-7.678,0.001-10.606
	c-14.324-14.324-14.324-37.631,0-51.955C48.769,316.71,49.501,314.79,49.501,312.871z"/>
<path style="fill:#1E99D6;" d="M64.76,360.173c0-1.919-0.732-3.839-2.196-5.303c-5.909-5.91-5.91-15.526,0-21.438
	c2.928-2.929,2.928-7.678,0-10.606c-2.93-2.929-7.678-2.929-10.607,0c-11.758,11.759-11.758,30.891,0,42.65
	c2.93,2.929,7.678,2.929,10.607,0C64.027,364.012,64.76,362.093,64.76,360.173z"/>
<g>
</g>
<g>
</g>
<g>
</g>
<g>
</g>
<g>
</g>
<g>
</g>
<g>
</g>
<g>
</g>
<g>
</g>
<g>
</g>
<g>
</g>
<g>
</g>
<g>
</g>
<g>
</g>
<g>
</g>
</svg>
